<svg aria-hidden="true" style="width:0;height:0;position:absolute;overflow:hidden" xmlns="http://www.w3.org/2000/svg"><defs><symbol id="icon-close-modal" viewBox="0 0 32 32"><path d="M32 3.223 28.777 0 16 12.777 3.223 0 0 3.223 12.777 16 0 28.777 3.223 32 16 19.223 28.777 32 32 28.777 19.223 16 32 3.223z"/></symbol><symbol id="icon-card-nine-right" viewBox="0 0 16 32"><path stroke-width=".314" d="M.314.314 16 16 .314 31.686"/></symbol><symbol id="icon-card-nine-left" viewBox="0 0 16 32"><path stroke-width=".314" d="M16 .314.314 16 16 31.686"/></symbol><symbol id="icon-lupa" viewBox="0 0 32 32"><path fill="none" stroke="#fff" style="stroke:var(--color1,#fff)" stroke-width="4" d="M24.087 13.043c0 6.099-4.944 11.043-11.043 11.043S2.001 19.142 2.001 13.043C2.001 6.944 6.945 2 13.044 2s11.043 4.944 11.043 11.043z"/><path fill="#fff" style="fill:var(--color1,#fff)" d="M28.586 31.414a2 2 0 1 0 2.828-2.828l-2.828 2.828zm-5.65-11.306-1.414-1.414-2.829 2.828 1.414 1.414 2.828-2.828zm8.478 8.478-8.478-8.478-2.828 2.828 8.478 8.478 2.828-2.828z"/></symbol><symbol id="icon-logo" viewBox="0 0 76 32"><path fill="none" stroke="#000" style="stroke:var(--color2,#000)" stroke-linejoin="round" stroke-linecap="round" stroke-width="1.6" d="m8.8 9.943-8 8 8 8M24.8 9.943l8 8-8 8"/><path style="fill:var(--color2,#000)" d="m19.628 4.034-6.869 25.637a.654.654 0 0 1-1.262-.338l6.869-25.637a.654.654 0 0 1 1.262.338z"/><path fill="#d9d9d9" style="fill:var(--color3,#d9d9d9)" d="M18.366 3.696a.654.654 0 0 1 1.262.338l-.837 3.123-1.262-.338.837-3.123z"/><path fill="none" stroke="#000" style="stroke:var(--color2,#000)" stroke-linecap="round" stroke-width=".8" d="m20.556 5.618 2.523.676M14.248 3.928l2.523.676M15.717.969l1.31 2.247M14.069 7.117l2.258-1.291M20.22 6.869l1.31 2.247M20.92 4.26l2.258-1.291"/><path style="fill:var(--color2,#000)" d="M44.013 12.058a3.69 3.69 0 0 1-1.805-.442 3.296 3.296 0 0 1-1.258-1.219c-.301-.525-.451-1.11-.451-1.757s.15-1.229.451-1.747c.307-.525.73-.934 1.267-1.229s1.139-.442 1.805-.442c.499 0 .96.083 1.382.25s.781.41 1.075.73l-.451.451c-.525-.531-1.187-.797-1.987-.797-.531 0-1.014.122-1.45.365s-.778.576-1.027.998c-.243.422-.365.896-.365 1.421s.122.998.365 1.421c.25.422.592.755 1.027.998s.918.365 1.45.365c.806 0 1.469-.269 1.987-.806l.451.451c-.294.32-.656.566-1.085.739-.422.166-.883.25-1.382.25zm5.676-.01a2.66 2.66 0 0 1-1.315-.326c-.39-.224-.698-.531-.922-.922s-.336-.832-.336-1.325.112-.934.336-1.325.531-.694.922-.912c.39-.218.829-.326 1.315-.326s.925.109 1.315.326c.39.218.694.522.912.912.224.39.336.832.336 1.325s-.112.934-.336 1.325a2.39 2.39 0 0 1-.912.922 2.65 2.65 0 0 1-1.315.326zm0-.605c.358 0 .678-.08.96-.24.288-.166.512-.4.672-.701s.24-.643.24-1.027c0-.384-.08-.726-.24-1.027s-.384-.531-.672-.691c-.282-.166-.602-.25-.96-.25s-.682.083-.97.25a1.74 1.74 0 0 0-.672.691c-.16.301-.24.643-.24 1.027s.08.726.24 1.027c.166.301.39.534.672.701.288.16.611.24.97.24zm8.563-6.566V12h-.653v-.998a2.08 2.08 0 0 1-.816.778c-.333.179-.71.269-1.133.269-.474 0-.902-.109-1.286-.326s-.685-.522-.902-.912c-.218-.39-.326-.835-.326-1.334s.109-.944.326-1.334a2.27 2.27 0 0 1 .902-.902 2.559 2.559 0 0 1 1.286-.326c.41 0 .778.086 1.104.259.333.166.605.413.816.739V4.879h.682zm-2.544 6.566c.352 0 .669-.08.95-.24.288-.166.512-.4.672-.701.166-.301.25-.643.25-1.027s-.083-.726-.25-1.027a1.665 1.665 0 0 0-.672-.691 1.836 1.836 0 0 0-.95-.25 1.9 1.9 0 0 0-.97.25 1.74 1.74 0 0 0-.672.691c-.16.301-.24.643-.24 1.027s.08.726.24 1.027c.166.301.39.534.672.701.288.16.611.24.97.24zM60.15 6.95h.682V12h-.682V6.95zm.346-1.104c-.141 0-.259-.048-.355-.144s-.144-.211-.144-.346c0-.128.048-.24.144-.336s.214-.144.355-.144.259.048.355.144a.43.43 0 0 1 .144.326c0 .141-.048.259-.144.355s-.214.144-.355.144zm4.805 1.066c.634 0 1.136.186 1.507.557.378.365.566.899.566 1.603V12h-.682V9.139c0-.525-.131-.925-.394-1.2s-.637-.413-1.123-.413c-.544 0-.976.163-1.296.49-.314.32-.47.765-.47 1.334V12h-.682V6.95h.653v.931c.186-.307.442-.544.768-.71a2.463 2.463 0 0 1 1.152-.259zm8.618.038v4.435c0 .858-.211 1.491-.634 1.901-.416.416-1.046.624-1.891.624-.467 0-.912-.07-1.334-.211-.416-.134-.755-.323-1.018-.566l.346-.518c.243.218.538.387.883.509.352.122.72.182 1.104.182.64 0 1.11-.15 1.411-.451.301-.294.451-.755.451-1.382v-.643c-.211.32-.49.563-.835.73-.339.166-.717.25-1.133.25-.474 0-.906-.102-1.296-.307a2.386 2.386 0 0 1-.912-.874c-.218-.378-.326-.803-.326-1.277s.109-.896.326-1.267c.224-.371.528-.659.912-.864s.816-.307 1.296-.307c.429 0 .816.086 1.162.259s.624.422.835.749v-.97h.653zm-2.582 4.253c.365 0 .694-.077.989-.23.294-.16.522-.381.682-.662.166-.282.25-.602.25-.96s-.083-.675-.25-.95a1.634 1.634 0 0 0-.682-.653 2.003 2.003 0 0 0-.989-.24c-.365 0-.694.077-.989.23a1.72 1.72 0 0 0-.682.653c-.16.282-.24.602-.24.96s.08.678.24.96c.166.282.394.502.682.662a2.1 2.1 0 0 0 .989.23zM62.366 18.762c-.134.197-.284.433-.45.708s-.342.583-.53.923c-.159.284-.317.588-.473.909a38.113 38.113 0 0 0-1.139 2.621 21.292 21.292 0 0 0-.281.732c-.031.078-.087.117-.169.117a.167.167 0 0 1-.108-.037.195.195 0 0 1-.061-.103l-.047-.197a30.845 30.845 0 0 0-.117-.52l-.173-.75c-.062-.284-.13-.58-.202-.886l-.211-.938a159.78 159.78 0 0 1-.202-.9c-.209.591-.42 1.114-.633 1.57a9.138 9.138 0 0 1-.647 1.186 5.033 5.033 0 0 1-.689.844 3.356 3.356 0 0 1-.741.553 2.978 2.978 0 0 1-.811.295c-.281.059-.58.089-.895.089-.163 0-.336-.019-.52-.056a2.907 2.907 0 0 1-1.068-.445 2.14 2.14 0 0 1-.441-.398 1.905 1.905 0 0 1-.305-.525 1.832 1.832 0 0 1-.112-.656c0-.253.053-.484.159-.694.106-.212.25-.394.431-.544.181-.153.391-.272.628-.356a2.29 2.29 0 0 1 .759-.127c.194 0 .367.017.52.052.156.031.294.072.413.122s.22.105.305.164.155.114.211.164c.056.05.097.094.122.131a.28.28 0 0 0 .042.052.201.201 0 0 1 .028.098.176.176 0 0 1-.052.122.157.157 0 0 1-.127.056.174.174 0 0 1-.15-.08 7.08 7.08 0 0 1-.075-.084c-.047-.056-.123-.117-.23-.183s-.244-.125-.412-.178a2.02 2.02 0 0 0-.609-.08c-.219 0-.427.034-.623.103a1.594 1.594 0 0 0-.511.281 1.43 1.43 0 0 0-.347.436 1.195 1.195 0 0 0-.127.548c0 .197.033.377.098.539s.153.308.263.436c.109.128.236.239.38.333a2.534 2.534 0 0 0 1.369.412c.238 0 .469-.017.694-.052.228-.038.452-.106.67-.206.222-.1.439-.238.652-.412s.423-.403.633-.684c.209-.281.416-.62.619-1.017a13.827 13.827 0 0 0 .802-1.931c.06-.187.12-.377.183-.567a11.73 11.73 0 0 1-.117-.703 4.432 4.432 0 0 1-.033-.483c0-.137.011-.247.033-.328s.05-.142.084-.183a.206.206 0 0 1 .113-.08.386.386 0 0 1 .117-.019c.031 0 .066.006.103.019a.209.209 0 0 1 .108.084c.034.041.063.102.084.183s.033.191.033.328c0 .15-.014.323-.042.52s-.07.414-.127.652c.041.191.088.403.141.638l.164.731.173.769.173.769.159.717.145.619c.084-.213.188-.469.309-.769a43.637 43.637 0 0 1 .881-1.997c.169-.353.341-.686.516-.998.247-.444.473-.823.68-1.139.206-.319.384-.581.534-.788a6.753 6.753 0 0 1 .493-.619.174.174 0 0 1 .127-.052.16.16 0 0 1 .127.056.168.168 0 0 1 .038.188 13.25 13.25 0 0 0-.37 1.051 12.244 12.244 0 0 0-.361 1.42 8.288 8.288 0 0 0-.126 1.153 6.882 6.882 0 0 0 .019 1.012c.019.209.05.411.094.605s.103.377.178.548c.075.169.167.317.277.445s.239.231.389.309c.153.078.33.12.53.127.05.003.089.025.117.066.031.038.047.078.047.122s-.017.083-.052.117a.168.168 0 0 1-.122.052c-.05 0-.1-.005-.15-.014a1.66 1.66 0 0 1-.595-.192c-.172-.1-.32-.222-.445-.366a2.106 2.106 0 0 1-.314-.497c-.081-.187-.147-.387-.197-.6s-.086-.433-.108-.661a8.518 8.518 0 0 1 .014-1.532 11.24 11.24 0 0 1 .468-2.269zm5.395 4.73-.08.159a3.574 3.574 0 0 1-.15.272c-.059.103-.13.211-.211.323s-.172.216-.272.309c-.1.094-.208.172-.323.234a.794.794 0 0 1-.366.089.653.653 0 0 1-.459-.173 1.016 1.016 0 0 1-.267-.436c-.106.178-.233.32-.38.427a.766.766 0 0 1-.441.155.775.775 0 0 1-.314-.061.72.72 0 0 1-.239-.178.897.897 0 0 1-.207-.61c0-.244.041-.458.122-.642.084-.188.191-.344.319-.469s.269-.219.422-.281c.156-.063.306-.094.45-.094a1.098 1.098 0 0 1 .473.126.68.68 0 0 1 .136.089l.052.042a.198.198 0 0 1 .052.127.182.182 0 0 1-.052.127.168.168 0 0 1-.122.052.172.172 0 0 1-.127-.052.438.438 0 0 0-.042-.033c-.022-.019-.052-.037-.089-.056s-.083-.034-.136-.047a.57.57 0 0 0-.173-.023.868.868 0 0 0-.609.272 1.14 1.14 0 0 0-.23.347 1.243 1.243 0 0 0-.07.675c.012.059.034.114.066.164a.363.363 0 0 0 .324.169c.056 0 .12-.019.192-.056a.669.669 0 0 0 .211-.173c.069-.078.13-.177.183-.295a1.44 1.44 0 0 0 .117-.422.165.165 0 0 1 .061-.108.176.176 0 0 1 .122-.047c.044 0 .081.017.112.052a.18.18 0 0 1 .056.117c.003.059.009.144.019.253.009.106.03.213.061.319.034.106.084.198.15.277s.156.117.272.117c.075 0 .148-.02.22-.061.075-.041.147-.094.216-.159.072-.069.139-.145.202-.23.066-.088.125-.175.178-.263s.1-.172.141-.253c.041-.081.075-.152.103-.211a.194.194 0 0 1 .066-.08.185.185 0 0 1 .098-.028c.053 0 .095.02.127.061a.178.178 0 0 1 .052.122.174.174 0 0 1-.014.066zm1.373 1.767c.587-.766.995-1.402 1.223-1.908a.173.173 0 0 1 .061-.075.162.162 0 0 1 .094-.028.17.17 0 0 1 .131.056.168.168 0 0 1 .038.188c-.138.313-.333.661-.586 1.045s-.573.819-.961 1.303c0 .197.002.394.005.591s.005.412.005.647c0 .234-.006.466-.019.694a6.86 6.86 0 0 1-.056.656 4.08 4.08 0 0 1-.117.577 1.693 1.693 0 0 1-.188.459.874.874 0 0 1-.277.305.642.642 0 0 1-.38.113c-.209 0-.37-.08-.483-.239s-.169-.386-.169-.68c0-.156.014-.327.042-.511.031-.181.075-.369.131-.563s.123-.391.202-.591c.081-.197.17-.389.267-.577s.202-.367.314-.539c.116-.172.238-.328.366-.469.003-.219.005-.436.005-.652.003-.216.008-.414.014-.595a1.038 1.038 0 0 1-.338.281.802.802 0 0 1-.384.103.722.722 0 0 1-.3-.061.686.686 0 0 1-.225-.178c-.062-.078-.111-.169-.145-.272s-.052-.216-.052-.338c0-.244.041-.458.122-.642.084-.188.191-.344.319-.469s.269-.219.422-.281c.156-.063.306-.094.45-.094.097 0 .186.012.267.038s.15.053.206.084c.059.031.105.061.136.089l.052.047a.182.182 0 0 1 0 .254.168.168 0 0 1-.122.052.193.193 0 0 1-.127-.052l-.052-.038a.46.46 0 0 0-.197-.103.607.607 0 0 0-.159-.019.851.851 0 0 0-.309.066c-.113.041-.217.106-.314.197s-.178.208-.244.352a1.198 1.198 0 0 0-.098.511c0 .15.033.272.098.366.066.091.167.136.305.136a.45.45 0 0 0 .206-.056c.075-.037.147-.095.216-.173s.128-.177.178-.295c.053-.119.091-.259.112-.422a.165.165 0 0 1 .061-.108.176.176 0 0 1 .122-.047c.053 0 .094.019.122.056.031.038.047.08.047.127l-.005.145-.009.366c-.003.153-.008.331-.014.534l-.009.638zm-.356 1.027c-.147.203-.28.423-.398.661-.119.241-.22.483-.305.727s-.15.48-.197.708a3.344 3.344 0 0 0-.066.619c0 .116.009.208.028.277a.537.537 0 0 0 .075.159.237.237 0 0 0 .098.075.348.348 0 0 0 .103.019c.097 0 .181-.039.253-.117s.133-.183.183-.314c.05-.128.091-.277.122-.445s.055-.344.07-.525c.016-.178.027-.356.033-.534s.009-.342.009-.492v-.403c0-.134-.003-.272-.009-.412zm2.349-5.166c0 .119-.042.22-.127.305-.081.081-.181.122-.3.122s-.22-.041-.305-.122a.424.424 0 0 1-.122-.305.428.428 0 0 1 .258-.394.435.435 0 0 1 .333 0 .382.382 0 0 1 .136.094.404.404 0 0 1 .127.3zm-.76 2.747c0-.45.028-.898.084-1.345a.19.19 0 0 1 .056-.112.179.179 0 0 1 .131-.052c.047 0 .086.019.117.056a.176.176 0 0 1 .047.122c0 .019-.005.075-.014.169-.006.094-.016.206-.028.337l-.028.413a9.626 9.626 0 0 0-.009.398c0 .166.016.3.047.403.034.1.077.178.127.234a.402.402 0 0 0 .164.112.553.553 0 0 0 .169.028c.088 0 .178-.031.272-.094s.189-.15.286-.262c.1-.113.2-.247.3-.403.1-.159.198-.336.295-.53a.16.16 0 0 1 .066-.07.162.162 0 0 1 .094-.028c.05 0 .091.019.122.056a.18.18 0 0 1 .052.122.155.155 0 0 1-.019.08c-.038.072-.084.159-.141.262s-.12.209-.192.319a4.53 4.53 0 0 1-.239.328 2.431 2.431 0 0 1-.272.291c-.097.084-.198.153-.305.206s-.214.08-.323.08c-.141 0-.264-.03-.37-.089s-.197-.139-.272-.239a1.088 1.088 0 0 1-.164-.352 1.832 1.832 0 0 1-.052-.441zm.497-2.747a.143.143 0 0 0-.052-.112c-.031-.034-.069-.052-.112-.052s-.081.017-.112.052c-.031.031-.047.069-.047.112s.016.081.047.112.069.047.112.047.081-.016.112-.047a.148.148 0 0 0 .052-.112zm4.58 2.382a6.798 6.798 0 0 0-.098.187 2.512 2.512 0 0 1-.183.309c-.075.113-.166.23-.272.352s-.228.234-.366.338c-.137.1-.292.183-.464.248a1.506 1.506 0 0 1-.553.098c-.178 0-.336-.033-.473-.098a.984.984 0 0 1-.352-.267c-.097-.119-.17-.258-.22-.417s-.075-.336-.075-.53c0-.187.027-.362.08-.525.053-.166.125-.309.216-.431.094-.122.202-.217.323-.286a.754.754 0 0 1 .67-.052.584.584 0 0 1 .211.141.633.633 0 0 1 .188.413.623.623 0 0 1-.028.192.632.632 0 0 1-.066.159.384.384 0 0 1-.089.108.175.175 0 0 1-.234-.014.183.183 0 0 1-.033-.193l.038-.056a.325.325 0 0 0 .057-.192c0-.066-.031-.125-.094-.178a.332.332 0 0 0-.23-.08.458.458 0 0 0-.253.08.75.75 0 0 0-.206.216 1.169 1.169 0 0 0-.145.314 1.412 1.412 0 0 0-.005.746.97.97 0 0 0 .141.309.717.717 0 0 0 .234.211c.097.053.211.08.342.08.169 0 .325-.03.469-.089.144-.062.275-.141.394-.234s.223-.195.314-.305c.091-.113.167-.217.23-.314.066-.1.116-.186.15-.258.038-.075.059-.122.066-.141a.136.136 0 0 1 .061-.07.185.185 0 0 1 .098-.028.16.16 0 0 1 .127.056c.034.038.052.08.052.127a.204.204 0 0 1-.019.075z"/></symbol><symbol id="icon-header-dark-version" viewBox="0 0 64 32"><path fill="#7a7a7a" style="fill:var(--color4,#7a7a7a)" d="M16 0h32c8.837 0 16 7.163 16 16s-7.163 16-16 16H16C7.163 32 0 24.837 0 16S7.163 0 16 0z"/><path style="fill:var(--color2,#000)" d="M64 16c0 8.837-7.343 16-16.4 16s-16.4-7.163-16.4-16S38.543 0 47.6 0 64 7.163 64 16z"/><path style="fill:var(--color2,#000)" d="M59.627 16c0 6.48-5.385 11.733-12.027 11.733S35.573 22.48 35.573 16 40.958 4.267 47.6 4.267 59.627 9.52 59.627 16z"/></symbol><symbol id="icon-header-light-version" viewBox="0 0 64 32"><path fill="#7a7a7a" style="fill:var(--color4,#7a7a7a)" d="M16 0h32c8.837 0 16 7.163 16 16s-7.163 16-16 16H16C7.163 32 0 24.837 0 16S7.163 0 16 0z"/><path fill="#fff" style="fill:var(--color1,#fff);stroke:var(--color2,#000)" stroke="#000" stroke-width=".8" d="M32.4 16c0 8.606-7.154 15.6-16 15.6S.4 24.606.4 16 7.554.4 16.4.4s16 6.994 16 15.6z"/><path style="fill:var(--color2,#000)" d="M28.427 16c0 6.48-5.385 11.733-12.027 11.733S4.373 22.48 4.373 16 9.758 4.267 16.4 4.267 28.427 9.52 28.427 16z"/></symbol></defs></svg>